<svg width="172" height="33" viewBox="0 0 172 33" fill="none" xmlns="http://www.w3.org/2000/svg">
<path d="M2.02273 31V7.72727H17.7045V11.7841H6.94318V17.3295H16.8977V21.3864H6.94318V26.9432H17.75V31H2.02273ZM37.7983 13.5455L31.696 31H26.2415L20.1392 13.5455H25.2528L28.8778 26.0341H29.0597L32.6733 13.5455H37.7983ZM47.6676 31.3409C45.8722 31.3409 44.3267 30.9773 43.0312 30.25C41.7434 29.5152 40.7509 28.4773 40.054 27.1364C39.357 25.7879 39.0085 24.1932 39.0085 22.3523C39.0085 20.5568 39.357 18.9811 40.054 17.625C40.7509 16.2689 41.732 15.2121 42.9972 14.4545C44.2699 13.697 45.7623 13.3182 47.4744 13.3182C48.6259 13.3182 49.6979 13.5038 50.6903 13.875C51.6903 14.2386 52.5616 14.7879 53.304 15.5227C54.054 16.2576 54.6373 17.1818 55.054 18.2955C55.4706 19.4015 55.679 20.697 55.679 22.1818V23.5114H40.9403V20.5114H51.1222C51.1222 19.8144 50.9706 19.197 50.6676 18.6591C50.3646 18.1212 49.9441 17.7008 49.4062 17.3977C48.8759 17.0871 48.2585 16.9318 47.554 16.9318C46.8191 16.9318 46.1676 17.1023 45.5994 17.4432C45.0388 17.7765 44.5994 18.2273 44.2812 18.7955C43.9631 19.3561 43.8002 19.9811 43.7926 20.6705V23.5227C43.7926 24.3864 43.9517 25.1326 44.2699 25.7614C44.5956 26.3902 45.054 26.875 45.6449 27.2159C46.2358 27.5568 46.9366 27.7273 47.7472 27.7273C48.285 27.7273 48.7775 27.6515 49.2244 27.5C49.6714 27.3485 50.054 27.1212 50.3722 26.8182C50.6903 26.5152 50.9328 26.1439 51.0994 25.7045L55.5767 26C55.3494 27.0758 54.8835 28.0152 54.179 28.8182C53.482 29.6136 52.5805 30.2348 51.4744 30.6818C50.3759 31.1212 49.107 31.3409 47.6676 31.3409ZM63.679 20.9091V31H58.8381V13.5455H63.4517V16.625H63.6562C64.0426 15.6098 64.6903 14.8068 65.5994 14.2159C66.5085 13.6174 67.6108 13.3182 68.9062 13.3182C70.1184 13.3182 71.1752 13.5833 72.0767 14.1136C72.9782 14.6439 73.679 15.4015 74.179 16.3864C74.679 17.3636 74.929 18.5303 74.929 19.8864V31H70.0881V20.75C70.0956 19.6818 69.8229 18.8485 69.2699 18.25C68.7169 17.6439 67.9555 17.3409 66.9858 17.3409C66.3343 17.3409 65.7585 17.4811 65.2585 17.7614C64.7661 18.0417 64.3797 18.4508 64.0994 18.9886C63.8267 19.5189 63.6866 20.1591 63.679 20.9091ZM88.0284 13.5455V17.1818H77.517V13.5455H88.0284ZM79.9034 9.36364H84.7443V25.6364C84.7443 26.0833 84.8125 26.4318 84.9489 26.6818C85.0852 26.9242 85.2746 27.0947 85.517 27.1932C85.767 27.2917 86.0549 27.3409 86.3807 27.3409C86.608 27.3409 86.8352 27.322 87.0625 27.2841C87.2898 27.2386 87.464 27.2045 87.5852 27.1818L88.3466 30.7841C88.1042 30.8598 87.7633 30.947 87.3239 31.0455C86.8845 31.1515 86.3504 31.2159 85.7216 31.2386C84.5549 31.2841 83.5322 31.1288 82.6534 30.7727C81.7822 30.4167 81.1042 29.8636 80.6193 29.1136C80.1345 28.3636 79.8958 27.4167 79.9034 26.2727V9.36364ZM98.679 31V7.72727H103.599V17.3295H113.588V7.72727H118.497V31H113.588V21.3864H103.599V31H98.679ZM122.463 31V13.5455H127.304V31H122.463ZM124.895 11.2955C124.175 11.2955 123.558 11.0568 123.043 10.5795C122.535 10.0947 122.281 9.51515 122.281 8.84091C122.281 8.17424 122.535 7.60227 123.043 7.125C123.558 6.64015 124.175 6.39773 124.895 6.39773C125.615 6.39773 126.228 6.64015 126.736 7.125C127.251 7.60227 127.509 8.17424 127.509 8.84091C127.509 9.51515 127.251 10.0947 126.736 10.5795C126.228 11.0568 125.615 11.2955 124.895 11.2955ZM147.455 13.5455L141.352 31H135.898L129.795 13.5455H134.909L138.534 26.0341H138.716L142.33 13.5455H147.455ZM157.324 31.3409C155.528 31.3409 153.983 30.9773 152.688 30.25C151.4 29.5152 150.407 28.4773 149.71 27.1364C149.013 25.7879 148.665 24.1932 148.665 22.3523C148.665 20.5568 149.013 18.9811 149.71 17.625C150.407 16.2689 151.388 15.2121 152.653 14.4545C153.926 13.697 155.419 13.3182 157.131 13.3182C158.282 13.3182 159.354 13.5038 160.347 13.875C161.347 14.2386 162.218 14.7879 162.96 15.5227C163.71 16.2576 164.294 17.1818 164.71 18.2955C165.127 19.4015 165.335 20.697 165.335 22.1818V23.5114H150.597V20.5114H160.778C160.778 19.8144 160.627 19.197 160.324 18.6591C160.021 18.1212 159.6 17.7008 159.062 17.3977C158.532 17.0871 157.915 16.9318 157.21 16.9318C156.475 16.9318 155.824 17.1023 155.256 17.4432C154.695 17.7765 154.256 18.2273 153.938 18.7955C153.619 19.3561 153.456 19.9811 153.449 20.6705V23.5227C153.449 24.3864 153.608 25.1326 153.926 25.7614C154.252 26.3902 154.71 26.875 155.301 27.2159C155.892 27.5568 156.593 27.7273 157.403 27.7273C157.941 27.7273 158.434 27.6515 158.881 27.5C159.328 27.3485 159.71 27.1212 160.028 26.8182C160.347 26.5152 160.589 26.1439 160.756 25.7045L165.233 26C165.006 27.0758 164.54 28.0152 163.835 28.8182C163.138 29.6136 162.237 30.2348 161.131 30.6818C160.032 31.1212 158.763 31.3409 157.324 31.3409Z" fill="#DF6951"/>
</svg>
